<svg xmlns="http://www.w3.org/2000/svg" viewBox="0 0 512 512">
  <rect width="512" height="512" rx="96" fill="#08090c"/>
  <rect x="8" y="8" width="496" height="496" rx="88" fill="none" stroke="#1a1d28" stroke-width="2"/>
  <!-- Crosshair circle -->
  <circle cx="256" cy="240" r="120" fill="none" stroke="#e5a00d" stroke-width="6" opacity="0.3"/>
  <circle cx="256" cy="240" r="80" fill="none" stroke="#e5a00d" stroke-width="4" opacity="0.5"/>
  <!-- Crosshair lines -->
  <line x1="256" y1="100" x2="256" y2="180" stroke="#e5a00d" stroke-width="4" stroke-linecap="round"/>
  <line x1="256" y1="300" x2="256" y2="380" stroke="#e5a00d" stroke-width="4" stroke-linecap="round"/>
  <line x1="116" y1="240" x2="196" y2="240" stroke="#e5a00d" stroke-width="4" stroke-linecap="round"/>
  <line x1="316" y1="240" x2="396" y2="240" stroke="#e5a00d" stroke-width="4" stroke-linecap="round"/>
  <!-- Center dot -->
  <circle cx="256" cy="240" r="6" fill="#e5a00d"/>
  <!-- Mountain silhouette -->
  <path d="M80 420 L180 320 L220 350 L280 280 L340 340 L380 310 L432 420 Z" fill="#1a1d28"/>
  <path d="M80 420 L180 320 L220 350 L280 280 L340 340 L380 310 L432 420 Z" fill="none" stroke="#e5a00d" stroke-width="2" opacity="0.4"/>
  <!-- Text -->
  <text x="256" y="470" text-anchor="middle" fill="#e8eaf0" font-family="sans-serif" font-size="36" font-weight="700" letter-spacing="4">HUNT MT</text>
</svg>
